<svg width="14" height="15" viewBox="0 0 14 15" fill="none" xmlns="http://www.w3.org/2000/svg">
<path d="M14 7.37158C14 11.2376 10.866 14.3716 7 14.3716C3.13399 14.3716 0 11.2376 0 7.37158C0 3.50558 3.134 0.371582 7 0.371582C10.866 0.371582 14 3.50558 14 7.37158ZM6.19031 11.078L11.3839 5.88448C11.5602 5.70812 11.5602 5.42217 11.3839 5.24581L10.7452 4.60714C10.5688 4.43076 10.2829 4.43076 10.1065 4.60714L5.87097 8.84265L3.89349 6.86518C3.71714 6.68883 3.43119 6.68883 3.2548 6.86518L2.61614 7.50385C2.43978 7.6802 2.43978 7.96616 2.61614 8.14251L5.55162 11.078C5.728 11.2544 6.01393 11.2544 6.19031 11.078Z" fill="#5E5E5E"/>
</svg>
