<svg
        width="27"
        height="27"
        viewBox="0 0 35 27"
        fill="none"
        xmlns="http://www.w3.org/2000/svg"
      >
        <path
          d="M8.09242 0.609009L12.9558 5.87271L9.52464 12.6363L16.7703 11.338L20.069 19.297L34.0811 0.923364L8.09242 0.609009ZM7.19587 12.0104L8.54492 10.901L6.80539 11.4508L6.62777 11.197L7.3467 10.4992L6.40363 10.8798C2.80475 12.2754 0.249023 15.7658 0.249023 19.8467C0.249023 22.597 1.40777 25.0696 3.25585 26.8204C2.4622 25.4248 2.00829 23.8121 2.00829 22.0909C2.00829 18.0522 4.55838 14.4576 8.09101 13.0409L8.53505 11.9611L7.4778 12.4277L7.18036 12.0259L7.19587 12.0104ZM13.3477 9.23336L15.6003 5.25668L28.8484 2.154L13.3477 9.23336Z"
          fill="#5E5E5E"></path>
      </svg>