<svg width="168" height="119" viewBox="0 0 168 119" fill="none" xmlns="http://www.w3.org/2000/svg">
<path d="M5.72363 52.3965H10.6621V65.5439L32.1689 42.7776L30.7695 41.433L38.6318 39.2571L36.5742 47.193L35.002 45.6305L16.4375 65.3914L18.2637 67.8098L36.5742 47.7776H42.9141V75.4253H38.0137V68.6814H28.5156L32.1689 64.002H38.0137V53.6289L21.793 71.8555L28.5156 80.1938H23.0332L13.293 68.6814L10.6621 71.3706V80.1938H5.89844L5.72363 52.3965Z" fill="white"/>
<path d="M21.7656 47.8511H2V83.7429H46.5723V53.4814" stroke="#FFAE4D" stroke-width="4"/>
<path d="M61.342 63.6641L58.548 60.2431V63.6641H57.008V55.9861H58.548V59.4291L61.342 55.9861H63.201L60.033 59.7921L63.289 63.6641H61.342ZM69.01 62.2011H65.952L65.446 63.6641H63.829L66.59 55.9751H68.383L71.144 63.6641H69.516L69.01 62.2011ZM68.592 60.9691L67.481 57.7571L66.37 60.9691H68.592ZM76.136 63.6641L74.442 60.6721H73.716V63.6641H72.176V55.9861H75.058C75.652 55.9861 76.158 56.0924 76.576 56.3051C76.994 56.5104 77.3057 56.7927 77.511 57.1521C77.7237 57.5041 77.83 57.9001 77.83 58.3401C77.83 58.8461 77.6833 59.3044 77.39 59.7151C77.0967 60.1184 76.6603 60.3971 76.081 60.5511L77.918 63.6641H76.136ZM73.716 59.5171H75.003C75.421 59.5171 75.7327 59.4181 75.938 59.2201C76.1433 59.0147 76.246 58.7324 76.246 58.3731C76.246 58.0211 76.1433 57.7497 75.938 57.5591C75.7327 57.3611 75.421 57.2621 75.003 57.2621H73.716V59.5171ZM80.7629 57.2291V59.1541H83.3479V60.3751H80.7629V62.4101H83.6779V63.6641H79.2229V55.9751H83.6779V57.2291H80.7629ZM91.6444 63.6641H90.1044L86.6174 58.3951V63.6641H85.0774V55.9751H86.6174L90.1044 61.2551V55.9751H91.6444V63.6641ZM100.495 62.2011H97.4373L96.9313 63.6641H95.3143L98.0753 55.9751H99.8683L102.629 63.6641H101.001L100.495 62.2011ZM100.077 60.9691L98.9663 57.7571L97.8553 60.9691H100.077ZM107.621 63.6641L105.927 60.6721H105.201V63.6641H103.661V55.9861H106.543C107.137 55.9861 107.643 56.0924 108.061 56.3051C108.479 56.5104 108.791 56.7927 108.996 57.1521C109.209 57.5041 109.315 57.9001 109.315 58.3401C109.315 58.8461 109.169 59.3044 108.875 59.7151C108.582 60.1184 108.146 60.3971 107.566 60.5511L109.403 63.6641H107.621ZM105.201 59.5171H106.488C106.906 59.5171 107.218 59.4181 107.423 59.2201C107.629 59.0147 107.731 58.7324 107.731 58.3731C107.731 58.0211 107.629 57.7497 107.423 57.5591C107.218 57.3611 106.906 57.2621 106.488 57.2621H105.201V59.5171ZM115.933 55.9861V57.2291H113.887V63.6641H112.347V57.2291H110.301V55.9861H115.933ZM123.426 55.9861V63.6641H121.886V60.3971H118.597V63.6641H117.057V55.9861H118.597V59.1431H121.886V55.9861H123.426ZM126.46 55.9861V60.7381C126.46 61.2587 126.595 61.6584 126.867 61.9371C127.138 62.2084 127.519 62.3441 128.011 62.3441C128.509 62.3441 128.894 62.2084 129.166 61.9371C129.437 61.6584 129.573 61.2587 129.573 60.7381V55.9861H131.124V60.7271C131.124 61.3797 130.981 61.9334 130.695 62.3881C130.416 62.8354 130.038 63.1727 129.562 63.4001C129.092 63.6274 128.568 63.7411 127.989 63.7411C127.417 63.7411 126.896 63.6274 126.427 63.4001C125.965 63.1727 125.598 62.8354 125.327 62.3881C125.055 61.9334 124.92 61.3797 124.92 60.7271V55.9861H126.46ZM136.572 63.6641L134.878 60.6721H134.152V63.6641H132.612V55.9861H135.494C136.088 55.9861 136.594 56.0924 137.012 56.3051C137.43 56.5104 137.741 56.7927 137.947 57.1521C138.159 57.5041 138.266 57.9001 138.266 58.3401C138.266 58.8461 138.119 59.3044 137.826 59.7151C137.532 60.1184 137.096 60.3971 136.517 60.5511L138.354 63.6641H136.572ZM134.152 59.5171H135.439C135.857 59.5171 136.168 59.4181 136.374 59.2201C136.579 59.0147 136.682 58.7324 136.682 58.3731C136.682 58.0211 136.579 57.7497 136.374 57.5591C136.168 57.3611 135.857 57.2621 135.439 57.2621H134.152V59.5171Z" fill="white"/>
<path d="M57.712 72.7601H59.322V73.5371H56.732V68.6511H57.712V72.7601ZM60.9249 69.4421V70.6671H62.5699V71.4441H60.9249V72.7391H62.7799V73.5371H59.9449V68.6441H62.7799V69.4421H60.9249ZM66.6665 72.6061H64.7205L64.3985 73.5371H63.3695L65.1265 68.6441H66.2675L68.0245 73.5371H66.9885L66.6665 72.6061ZM66.4005 71.8221L65.6935 69.7781L64.9865 71.8221H66.4005ZM70.3892 68.6511C70.9026 68.6511 71.3529 68.7514 71.7402 68.9521C72.1322 69.1528 72.4332 69.4398 72.6432 69.8131C72.8579 70.1818 72.9652 70.6111 72.9652 71.1011C72.9652 71.5911 72.8579 72.0204 72.6432 72.3891C72.4332 72.7531 72.1322 73.0354 71.7402 73.2361C71.3529 73.4368 70.9026 73.5371 70.3892 73.5371H68.6812V68.6511H70.3892ZM70.3542 72.7041C70.8676 72.7041 71.2642 72.5641 71.5442 72.2841C71.8242 72.0041 71.9642 71.6098 71.9642 71.1011C71.9642 70.5924 71.8242 70.1958 71.5442 69.9111C71.2642 69.6218 70.8676 69.4771 70.3542 69.4771H69.6612V72.7041H70.3542ZM74.6788 69.4421V70.6671H76.3238V71.4441H74.6788V72.7391H76.5338V73.5371H73.6988V68.6441H76.5338V69.4421H74.6788ZM79.9444 73.5371L78.8664 71.6331H78.4044V73.5371H77.4244V68.6511H79.2584C79.6364 68.6511 79.9584 68.7188 80.2244 68.8541C80.4904 68.9848 80.6887 69.1644 80.8194 69.3931C80.9547 69.6171 81.0224 69.8691 81.0224 70.1491C81.0224 70.4711 80.9291 70.7628 80.7424 71.0241C80.5557 71.2808 80.2781 71.4581 79.9094 71.5561L81.0784 73.5371H79.9444ZM78.4044 70.8981H79.2234C79.4894 70.8981 79.6877 70.8351 79.8184 70.7091C79.9491 70.5784 80.0144 70.3988 80.0144 70.1701C80.0144 69.9461 79.9491 69.7734 79.8184 69.6521C79.6877 69.5261 79.4894 69.4631 79.2234 69.4631H78.4044V70.8981ZM83.5958 73.5861C83.2551 73.5861 82.9471 73.5278 82.6718 73.4111C82.4011 73.2944 82.1864 73.1264 82.0278 72.9071C81.8691 72.6878 81.7874 72.4288 81.7828 72.1301H82.8328C82.8468 72.3308 82.9168 72.4894 83.0428 72.6061C83.1734 72.7228 83.3508 72.7811 83.5748 72.7811C83.8034 72.7811 83.9831 72.7274 84.1138 72.6201C84.2444 72.5081 84.3098 72.3634 84.3098 72.1861C84.3098 72.0414 84.2654 71.9224 84.1768 71.8291C84.0881 71.7358 83.9761 71.6634 83.8408 71.6121C83.7101 71.5561 83.5281 71.4954 83.2948 71.4301C82.9774 71.3368 82.7184 71.2458 82.5178 71.1571C82.3218 71.0638 82.1514 70.9261 82.0068 70.7441C81.8668 70.5574 81.7968 70.3101 81.7968 70.0021C81.7968 69.7128 81.8691 69.4608 82.0138 69.2461C82.1584 69.0314 82.3614 68.8681 82.6228 68.7561C82.8841 68.6394 83.1828 68.5811 83.5188 68.5811C84.0228 68.5811 84.4311 68.7048 84.7438 68.9521C85.0611 69.1948 85.2361 69.5354 85.2688 69.9741H84.1908C84.1814 69.8061 84.1091 69.6684 83.9738 69.5611C83.8431 69.4491 83.6681 69.3931 83.4488 69.3931C83.2574 69.3931 83.1034 69.4421 82.9868 69.5401C82.8748 69.6381 82.8188 69.7804 82.8188 69.9671C82.8188 70.0978 82.8608 70.2074 82.9448 70.2961C83.0334 70.3801 83.1408 70.4501 83.2668 70.5061C83.3974 70.5574 83.5794 70.6181 83.8128 70.6881C84.1301 70.7814 84.3891 70.8748 84.5898 70.9681C84.7904 71.0614 84.9631 71.2014 85.1078 71.3881C85.2524 71.5748 85.3248 71.8198 85.3248 72.1231C85.3248 72.3844 85.2571 72.6271 85.1218 72.8511C84.9864 73.0751 84.7881 73.2548 84.5268 73.3901C84.2654 73.5208 83.9551 73.5861 83.5958 73.5861ZM90.2274 68.6511V73.5371H89.2474V71.4581H87.1544V73.5371H86.1744V68.6511H87.1544V70.6601H89.2474V68.6511H90.2274ZM92.172 68.6511V73.5371H91.192V68.6511H92.172ZM96.7032 70.1631C96.7032 70.4244 96.6402 70.6694 96.5142 70.8981C96.3929 71.1268 96.1992 71.3111 95.9332 71.4511C95.6719 71.5911 95.3406 71.6611 94.9392 71.6611H94.1202V73.5371H93.1402V68.6511H94.9392C95.3172 68.6511 95.6392 68.7164 95.9052 68.8471C96.1712 68.9778 96.3696 69.1574 96.5002 69.3861C96.6356 69.6148 96.7032 69.8738 96.7032 70.1631ZM94.8972 70.8701C95.1679 70.8701 95.3686 70.8094 95.4992 70.6881C95.6299 70.5621 95.6952 70.3871 95.6952 70.1631C95.6952 69.6871 95.4292 69.4491 94.8972 69.4491H94.1202V70.8701H94.8972ZM102.826 73.5371L102.294 73.0121C101.841 73.4181 101.288 73.6211 100.635 73.6211C100.276 73.6211 99.9583 73.5604 99.683 73.4391C99.4123 73.3131 99.2023 73.1381 99.053 72.9141C98.9037 72.6854 98.829 72.4218 98.829 72.1231C98.829 71.8011 98.92 71.5118 99.102 71.2551C99.284 70.9984 99.5523 70.7908 99.907 70.6321C99.781 70.4781 99.69 70.3311 99.634 70.1911C99.578 70.0464 99.55 69.8924 99.55 69.7291C99.55 69.5051 99.6083 69.3044 99.725 69.1271C99.8417 68.9451 100.007 68.8028 100.222 68.7001C100.441 68.5974 100.696 68.5461 100.985 68.5461C101.279 68.5461 101.531 68.6021 101.741 68.7141C101.951 68.8261 102.107 68.9754 102.21 69.1621C102.313 69.3488 102.357 69.5564 102.343 69.7851H101.391C101.396 69.6311 101.358 69.5144 101.279 69.4351C101.2 69.3511 101.092 69.3091 100.957 69.3091C100.826 69.3091 100.717 69.3488 100.628 69.4281C100.544 69.5028 100.502 69.6008 100.502 69.7221C100.502 69.8388 100.537 69.9554 100.607 70.0721C100.677 70.1841 100.791 70.3241 100.95 70.4921L102.182 71.7101C102.191 71.7008 102.198 71.6914 102.203 71.6821C102.208 71.6728 102.212 71.6634 102.217 71.6541L102.616 70.9891H103.638L103.148 71.8501C103.055 72.0321 102.954 72.2048 102.847 72.3681L104.03 73.5371H102.826ZM100.663 72.8091C101.046 72.8091 101.384 72.6738 101.678 72.4031L100.474 71.2131C100.021 71.4138 99.795 71.6984 99.795 72.0671C99.795 72.2771 99.8743 72.4544 100.033 72.5991C100.192 72.7391 100.402 72.8091 100.663 72.8091ZM108.955 71.0311C109.231 71.0824 109.457 71.2201 109.634 71.4441C109.812 71.6681 109.9 71.9248 109.9 72.2141C109.9 72.4754 109.835 72.7064 109.704 72.9071C109.578 73.1031 109.394 73.2571 109.151 73.3691C108.909 73.4811 108.622 73.5371 108.29 73.5371H106.183V68.6511H108.199C108.531 68.6511 108.815 68.7048 109.053 68.8121C109.296 68.9194 109.478 69.0688 109.599 69.2601C109.725 69.4514 109.788 69.6684 109.788 69.9111C109.788 70.1958 109.711 70.4338 109.557 70.6251C109.408 70.8164 109.207 70.9518 108.955 71.0311ZM107.163 70.6671H108.059C108.293 70.6671 108.472 70.6158 108.598 70.5131C108.724 70.4058 108.787 70.2541 108.787 70.0581C108.787 69.8621 108.724 69.7104 108.598 69.6031C108.472 69.4958 108.293 69.4421 108.059 69.4421H107.163V70.6671ZM108.15 72.7391C108.388 72.7391 108.573 72.6831 108.703 72.5711C108.839 72.4591 108.906 72.3004 108.906 72.0951C108.906 71.8851 108.836 71.7218 108.696 71.6051C108.556 71.4838 108.367 71.4231 108.129 71.4231H107.163V72.7391H108.15ZM111.647 68.6511V71.6751C111.647 72.0064 111.734 72.2608 111.906 72.4381C112.079 72.6108 112.322 72.6971 112.634 72.6971C112.952 72.6971 113.197 72.6108 113.369 72.4381C113.542 72.2608 113.628 72.0064 113.628 71.6751V68.6511H114.615V71.6681C114.615 72.0834 114.524 72.4358 114.342 72.7251C114.165 73.0098 113.925 73.2244 113.621 73.3691C113.323 73.5138 112.989 73.5861 112.62 73.5861C112.256 73.5861 111.925 73.5138 111.626 73.3691C111.332 73.2244 111.099 73.0098 110.926 72.7251C110.754 72.4358 110.667 72.0834 110.667 71.6681V68.6511H111.647ZM117.249 73.5861C116.908 73.5861 116.6 73.5278 116.325 73.4111C116.054 73.2944 115.84 73.1264 115.681 72.9071C115.522 72.6878 115.441 72.4288 115.436 72.1301H116.486C116.5 72.3308 116.57 72.4894 116.696 72.6061C116.827 72.7228 117.004 72.7811 117.228 72.7811C117.457 72.7811 117.636 72.7274 117.767 72.6201C117.898 72.5081 117.963 72.3634 117.963 72.1861C117.963 72.0414 117.919 71.9224 117.83 71.8291C117.741 71.7358 117.629 71.6634 117.494 71.6121C117.363 71.5561 117.181 71.4954 116.948 71.4301C116.631 71.3368 116.372 71.2458 116.171 71.1571C115.975 71.0638 115.805 70.9261 115.66 70.7441C115.52 70.5574 115.45 70.3101 115.45 70.0021C115.45 69.7128 115.522 69.4608 115.667 69.2461C115.812 69.0314 116.015 68.8681 116.276 68.7561C116.537 68.6394 116.836 68.5811 117.172 68.5811C117.676 68.5811 118.084 68.7048 118.397 68.9521C118.714 69.1948 118.889 69.5354 118.922 69.9741H117.844C117.835 69.8061 117.762 69.6684 117.627 69.5611C117.496 69.4491 117.321 69.3931 117.102 69.3931C116.911 69.3931 116.757 69.4421 116.64 69.5401C116.528 69.6381 116.472 69.7804 116.472 69.9671C116.472 70.0978 116.514 70.2074 116.598 70.2961C116.687 70.3801 116.794 70.4501 116.92 70.5061C117.051 70.5574 117.233 70.6181 117.466 70.6881C117.783 70.7814 118.042 70.8748 118.243 70.9681C118.444 71.0614 118.616 71.2014 118.761 71.3881C118.906 71.5748 118.978 71.8198 118.978 72.1231C118.978 72.3844 118.91 72.6271 118.775 72.8511C118.64 73.0751 118.441 73.2548 118.18 73.3901C117.919 73.5208 117.608 73.5861 117.249 73.5861ZM120.808 68.6511V73.5371H119.828V68.6511H120.808ZM125.955 73.5371H124.975L122.756 70.1841V73.5371H121.776V68.6441H122.756L124.975 72.0041V68.6441H125.955V73.5371ZM127.903 69.4421V70.6671H129.548V71.4441H127.903V72.7391H129.758V73.5371H126.923V68.6441H129.758V69.4421H127.903ZM132.336 73.5861C131.995 73.5861 131.687 73.5278 131.412 73.4111C131.141 73.2944 130.927 73.1264 130.768 72.9071C130.609 72.6878 130.528 72.4288 130.523 72.1301H131.573C131.587 72.3308 131.657 72.4894 131.783 72.6061C131.914 72.7228 132.091 72.7811 132.315 72.7811C132.544 72.7811 132.723 72.7274 132.854 72.6201C132.985 72.5081 133.05 72.3634 133.05 72.1861C133.05 72.0414 133.006 71.9224 132.917 71.8291C132.828 71.7358 132.716 71.6634 132.581 71.6121C132.45 71.5561 132.268 71.4954 132.035 71.4301C131.718 71.3368 131.459 71.2458 131.258 71.1571C131.062 71.0638 130.892 70.9261 130.747 70.7441C130.607 70.5574 130.537 70.3101 130.537 70.0021C130.537 69.7128 130.609 69.4608 130.754 69.2461C130.899 69.0314 131.102 68.8681 131.363 68.7561C131.624 68.6394 131.923 68.5811 132.259 68.5811C132.763 68.5811 133.171 68.7048 133.484 68.9521C133.801 69.1948 133.976 69.5354 134.009 69.9741H132.931C132.922 69.8061 132.849 69.6684 132.714 69.5611C132.583 69.4491 132.408 69.3931 132.189 69.3931C131.998 69.3931 131.844 69.4421 131.727 69.5401C131.615 69.6381 131.559 69.7804 131.559 69.9671C131.559 70.0978 131.601 70.2074 131.685 70.2961C131.774 70.3801 131.881 70.4501 132.007 70.5061C132.138 70.5574 132.32 70.6181 132.553 70.6881C132.87 70.7814 133.129 70.8748 133.33 70.9681C133.531 71.0614 133.703 71.2014 133.848 71.3881C133.993 71.5748 134.065 71.8198 134.065 72.1231C134.065 72.3844 133.997 72.6271 133.862 72.8511C133.727 73.0751 133.528 73.2548 133.267 73.3901C133.006 73.5208 132.695 73.5861 132.336 73.5861ZM136.602 73.5861C136.261 73.5861 135.953 73.5278 135.678 73.4111C135.407 73.2944 135.192 73.1264 135.034 72.9071C134.875 72.6878 134.793 72.4288 134.789 72.1301H135.839C135.853 72.3308 135.923 72.4894 136.049 72.6061C136.179 72.7228 136.357 72.7811 136.581 72.7811C136.809 72.7811 136.989 72.7274 137.12 72.6201C137.25 72.5081 137.316 72.3634 137.316 72.1861C137.316 72.0414 137.271 71.9224 137.183 71.8291C137.094 71.7358 136.982 71.6634 136.847 71.6121C136.716 71.5561 136.534 71.4954 136.301 71.4301C135.983 71.3368 135.724 71.2458 135.524 71.1571C135.328 71.0638 135.157 70.9261 135.013 70.7441C134.873 70.5574 134.803 70.3101 134.803 70.0021C134.803 69.7128 134.875 69.4608 135.02 69.2461C135.164 69.0314 135.367 68.8681 135.629 68.7561C135.89 68.6394 136.189 68.5811 136.525 68.5811C137.029 68.5811 137.437 68.7048 137.75 68.9521C138.067 69.1948 138.242 69.5354 138.275 69.9741H137.197C137.187 69.8061 137.115 69.6684 136.98 69.5611C136.849 69.4491 136.674 69.3931 136.455 69.3931C136.263 69.3931 136.109 69.4421 135.993 69.5401C135.881 69.6381 135.825 69.7804 135.825 69.9671C135.825 70.0978 135.867 70.2074 135.951 70.2961C136.039 70.3801 136.147 70.4501 136.273 70.5061C136.403 70.5574 136.585 70.6181 136.819 70.6881C137.136 70.7814 137.395 70.8748 137.596 70.9681C137.796 71.0614 137.969 71.2014 138.114 71.3881C138.258 71.5748 138.331 71.8198 138.331 72.1231C138.331 72.3844 138.263 72.6271 138.128 72.8511C137.992 73.0751 137.794 73.2548 137.533 73.3901C137.271 73.5208 136.961 73.5861 136.602 73.5861ZM140.61 71.0871C140.61 70.6064 140.718 70.1771 140.932 69.7991C141.152 69.4164 141.448 69.1201 141.821 68.9101C142.199 68.6954 142.622 68.5881 143.088 68.5881C143.634 68.5881 144.113 68.7281 144.523 69.0081C144.934 69.2881 145.221 69.6754 145.384 70.1701H144.257C144.145 69.9368 143.987 69.7618 143.781 69.6451C143.581 69.5284 143.347 69.4701 143.081 69.4701C142.797 69.4701 142.542 69.5378 142.318 69.6731C142.099 69.8038 141.926 69.9904 141.8 70.2331C141.679 70.4758 141.618 70.7604 141.618 71.0871C141.618 71.4091 141.679 71.6938 141.8 71.9411C141.926 72.1838 142.099 72.3728 142.318 72.5081C142.542 72.6388 142.797 72.7041 143.081 72.7041C143.347 72.7041 143.581 72.6458 143.781 72.5291C143.987 72.4078 144.145 72.2304 144.257 71.9971H145.384C145.221 72.4964 144.934 72.8861 144.523 73.1661C144.117 73.4414 143.639 73.5791 143.088 73.5791C142.622 73.5791 142.199 73.4741 141.821 73.2641C141.448 73.0494 141.152 72.7531 140.932 72.3751C140.718 71.9971 140.61 71.5678 140.61 71.0871ZM148.489 73.5861C148.032 73.5861 147.612 73.4788 147.229 73.2641C146.847 73.0494 146.543 72.7531 146.319 72.3751C146.095 71.9924 145.983 71.5608 145.983 71.0801C145.983 70.6041 146.095 70.1771 146.319 69.7991C146.543 69.4164 146.847 69.1178 147.229 68.9031C147.612 68.6884 148.032 68.5811 148.489 68.5811C148.951 68.5811 149.371 68.6884 149.749 68.9031C150.132 69.1178 150.433 69.4164 150.652 69.7991C150.876 70.1771 150.988 70.6041 150.988 71.0801C150.988 71.5608 150.876 71.9924 150.652 72.3751C150.433 72.7531 150.132 73.0494 149.749 73.2641C149.367 73.4788 148.947 73.5861 148.489 73.5861ZM148.489 72.7111C148.783 72.7111 149.042 72.6458 149.266 72.5151C149.49 72.3798 149.665 72.1884 149.791 71.9411C149.917 71.6938 149.98 71.4068 149.98 71.0801C149.98 70.7534 149.917 70.4688 149.791 70.2261C149.665 69.9788 149.49 69.7898 149.266 69.6591C149.042 69.5284 148.783 69.4631 148.489 69.4631C148.195 69.4631 147.934 69.5284 147.705 69.6591C147.481 69.7898 147.306 69.9788 147.18 70.2261C147.054 70.4688 146.991 70.7534 146.991 71.0801C146.991 71.4068 147.054 71.6938 147.18 71.9411C147.306 72.1884 147.481 72.3798 147.705 72.5151C147.934 72.6458 148.195 72.7111 148.489 72.7111ZM154.713 72.6061H152.767L152.445 73.5371H151.416L153.173 68.6441H154.314L156.071 73.5371H155.035L154.713 72.6061ZM154.447 71.8221L153.74 69.7781L153.033 71.8221H154.447ZM156.49 71.0871C156.49 70.6064 156.597 70.1771 156.812 69.7991C157.031 69.4164 157.328 69.1201 157.701 68.9101C158.079 68.6954 158.501 68.5881 158.968 68.5881C159.514 68.5881 159.992 68.7281 160.403 69.0081C160.814 69.2881 161.101 69.6754 161.264 70.1701H160.137C160.025 69.9368 159.866 69.7618 159.661 69.6451C159.46 69.5284 159.227 69.4701 158.961 69.4701C158.676 69.4701 158.422 69.5378 158.198 69.6731C157.979 69.8038 157.806 69.9904 157.68 70.2331C157.559 70.4758 157.498 70.7604 157.498 71.0871C157.498 71.4091 157.559 71.6938 157.68 71.9411C157.806 72.1838 157.979 72.3728 158.198 72.5081C158.422 72.6388 158.676 72.7041 158.961 72.7041C159.227 72.7041 159.46 72.6458 159.661 72.5291C159.866 72.4078 160.025 72.2304 160.137 71.9971H161.264C161.101 72.4964 160.814 72.8861 160.403 73.1661C159.997 73.4414 159.519 73.5791 158.968 73.5791C158.501 73.5791 158.079 73.4741 157.701 73.2641C157.328 73.0494 157.031 72.7531 156.812 72.3751C156.597 71.9971 156.49 71.5678 156.49 71.0871ZM166.154 68.6511V73.5371H165.174V71.4581H163.081V73.5371H162.101V68.6511H163.081V70.6601H165.174V68.6511H166.154Z" fill="white"/>
</svg>
