<svg xmlns="http://www.w3.org/2000/svg" width="167.249" height="46.486" viewBox="0 0 167.249 46.486">
  <g id="logo" transform="translate(-216 -57.014)">
    <g id="Group_1" data-name="Group 1" transform="translate(218 57.014)">
      <path id="Path_2" data-name="Path 2" d="M8800.585,1701.012h4.938v13.147l21.507-22.766-1.4-1.345,7.862-2.176-2.058,7.936-1.572-1.562-18.564,19.761,1.826,2.418,18.311-20.032h6.34v27.648h-4.9V1717.3h-9.5l3.653-4.679h5.845v-10.373l-16.221,18.227,6.723,8.338h-5.482l-9.74-11.512-2.631,2.689v8.823h-4.764Z" transform="translate(-8796.861 -1687.872)"/>
      <path id="Path_3" data-name="Path 3" d="M8799.885,1785.56h-19.766v35.892h44.572V1791.19" transform="translate(-8780.119 -1776.966)" fill="none" stroke="#ffae4d" stroke-width="4"/>
    </g>
    <text id="KAREN_ARTHUR" data-name="KAREN ARTHUR" transform="translate(272.249 80.421)" fill="#262626" font-size="11" font-family="Poppins-SemiBold, Poppins" font-weight="600"><tspan x="0" y="0">KAREN ARTHUR</tspan></text>
    <text id="LEADERSHIP_BUSINESS_COACH" data-name="LEADERSHIP &amp; BUSINESS COACH" transform="translate(272.249 92.294)" fill="#1d1d1d" font-size="7" font-family="Poppins-SemiBold, Poppins" font-weight="600"><tspan x="0" y="0">LEADERSHIP &amp; BUSINESS COACH</tspan></text>
  </g>
</svg>
