      <svg
        width="27"
        height="27"
        viewBox="0 0 27 27"
        fill="none"
        xmlns="http://www.w3.org/2000/svg"
      >
        <path
          d="M16.463 5.43185C18.9669 5.92037 20.9246 7.8781 21.4132 10.382L16.463 5.43185ZM16.463 0.419067C21.7008 1.00094 25.8375 5.13239 26.4259 10.3694L16.463 0.419067ZM25.1727 20.3699V24.1295C25.1756 24.8353 24.8808 25.5095 24.3608 25.9866C23.8407 26.4637 23.1436 26.6994 22.4408 26.6359C18.5845 26.2169 14.8802 24.8992 11.6257 22.7886C8.59776 20.8645 6.0306 18.2974 4.10652 15.2694C1.98859 12.0001 0.670556 8.27786 0.259205 4.40423C0.195883 3.70354 0.429977 3.00849 0.904304 2.48887C1.37863 1.96926 2.04951 1.67293 2.75306 1.67226L6.51265 1.67226C7.77069 1.65988 8.84297 2.58204 9.01904 3.82776C9.17772 5.03091 9.47201 6.21225 9.89628 7.34924C10.2406 8.26517 10.0204 9.29772 9.33234 9.99349L7.74078 11.585C9.52478 14.7225 12.1225 17.3202 15.26 19.1042L16.8515 17.5127C17.5473 16.8246 18.5798 16.6044 19.4958 16.9487C20.6328 17.373 21.8141 17.6673 23.0172 17.826C24.2774 18.0037 25.2043 19.0977 25.1727 20.3699Z"
          fill="#5E5E5E"></path>
      </svg>