<svg xmlns="http://www.w3.org/2000/svg" width="24.846" height="20.191" viewBox="0 0 24.846 20.191">
  <path id="twitter" d="M24.846,4.638a10.177,10.177,0,0,1-2.928.8,5.106,5.106,0,0,0,2.241-2.82,10.211,10.211,0,0,1-3.237,1.237,5.1,5.1,0,0,0-8.687,4.648A14.471,14.471,0,0,1,1.73,3.181,5.1,5.1,0,0,0,3.307,9.986,5.076,5.076,0,0,1,1,9.349a5.1,5.1,0,0,0,4.088,5.062,5.109,5.109,0,0,1-2.3.087,5.1,5.1,0,0,0,4.762,3.539A10.249,10.249,0,0,1,0,20.149a14.43,14.43,0,0,0,7.814,2.29A14.416,14.416,0,0,0,22.3,7.277a10.378,10.378,0,0,0,2.544-2.639Z" transform="translate(0 -2.248)" fill="#ffae4d"/>
</svg>
